<?xml version="1.0" encoding="UTF-8"?>
<svg version="1.1" xmlns="http://www.w3.org/2000/svg" width="225" height="225">
<path d="M0 0 C74.25 0 148.5 0 225 0 C225 74.25 225 148.5 225 225 C150.75 225 76.5 225 0 225 C0 150.75 0 76.5 0 0 Z " fill="#FDFEFE" transform="translate(0,0)"/>
<path d="M0 0 C6.39362336 4.24204074 11.78956375 10.56489624 14 18 C14 19.32 14 20.64 14 22 C11.41638953 22.3304618 8.84083445 22.61502007 6.25 22.875 C5.52039063 22.97296875 4.79078125 23.0709375 4.0390625 23.171875 C1.890625 23.3671875 1.890625 23.3671875 -2 23 C-4.328125 20.15234375 -4.328125 20.15234375 -6 17 C-11.87456343 12.47169069 -16.61126876 11.26528564 -24 12 C-30.1567593 13.80456738 -33.43298996 16.86124193 -37 22 C-38.42190914 24.96380641 -39.42150732 27.98316348 -40.375 31.125 C-40.63410156 31.91003906 -40.89320312 32.69507813 -41.16015625 33.50390625 C-42.96867557 39.13626613 -42.96867557 39.13626613 -43 45 C-41.71937515 46.7074998 -40.38232443 48.37373596 -39 50 C-36.33580656 54.92875786 -36.16966312 59.9466726 -37.6171875 65.26953125 C-39.93607193 71.29247444 -43.60575444 75.46002635 -49 79 C-54.51337968 80.87041678 -60.21463362 80.5749485 -65.6875 78.8125 C-70.94345013 75.93660276 -75.4112852 73.00928843 -77.51953125 67.14453125 C-79.05207998 60.30413082 -79.18148958 54.0544165 -75.375 48 C-71.82798397 43.40386655 -68.38657533 40.53035007 -62.625 39.25 C-61.75875 39.1675 -60.8925 39.085 -60 39 C-58.01061543 33.68824222 -56.07547101 28.40680325 -54.5625 22.9375 C-51.57398351 12.8692359 -47.04760298 5.38451216 -38.5 -0.8125 C-27.06207814 -6.24551288 -11.07867524 -6.18033178 0 0 Z " fill="#0D57A6" transform="translate(131,13)"/>
<path d="M0 0 C4 4.1 4 4.1 4 8 C4.79059814 7.97905273 5.58119629 7.95810547 6.39575195 7.93652344 C10.03453464 7.85253722 13.67311243 7.80107912 17.3125 7.75 C19.17745117 7.69972656 19.17745117 7.69972656 21.08007812 7.6484375 C32.20939411 7.53159429 42.20264685 9.61356997 50.55078125 17.45703125 C54.89888262 22.06407662 56.94356627 27.07786632 59 33 C59.4125 33.99 59.825 34.98 60.25 36 C62.42981518 44.71926074 60.88634153 52.96822751 57 61 C53.64046817 65.68131484 49.80620723 69.78584891 45 73 C44.34 73 43.68 73 43 73 C42.5978125 71.1746875 42.5978125 71.1746875 42.1875 69.3125 C41.49599416 66.45057435 40.86383979 64.78603396 39.25 62.25 C38.8375 61.5075 38.425 60.765 38 60 C38.7890625 58.12890625 38.7890625 58.12890625 40 56 C43.09050796 49.89793867 45.48451348 44.8201974 43.3515625 37.89453125 C42.61911928 35.90388111 41.82048121 33.95555107 41 32 C40.67 31.01 40.34 30.02 40 29 C38.16715557 27.87483915 38.16715557 27.87483915 36 27 C35.41968018 26.66049316 34.83936035 26.32098633 34.24145508 25.97119141 C29.43402325 23.88819785 23.84765084 24.45660492 18.6875 24.375 C17.47642578 24.31699219 16.26535156 24.25898437 15.01757812 24.19921875 C8.42626765 23.98487285 8.42626765 23.98487285 2.67895508 26.75488281 C0.94760187 28.75777199 -0.50999336 30.81654161 -2 33 C-7.33592994 36.9709246 -13.6025565 36.89832868 -20 36 C-25.95161616 33.65980141 -29.76171153 29.64127363 -33.078125 24.24609375 C-35.0414176 19.4626478 -34.49910466 14.06054214 -34 9 C-31.27050003 2.99510006 -25.98839796 -1.50580102 -20.125 -4.4375 C-12.79432912 -5.75702076 -6.15337729 -4.1809629 0 0 Z " fill="#0992CA" transform="translate(153,49)"/>
<path d="M0 0 C4.35452976 3.19829488 7.88384921 6.91227609 8.82421875 12.33984375 C9.55332906 19.26041539 8.82108579 25.47153395 4.82421875 31.33984375 C3.33921875 31.83484375 3.33921875 31.83484375 1.82421875 32.33984375 C1.82421875 32.99984375 1.82421875 33.65984375 1.82421875 34.33984375 C-4.43249454 37.72511858 -10.01957169 39.45073549 -17.17578125 38.33984375 C-18.66078125 37.34984375 -18.66078125 37.34984375 -20.17578125 36.33984375 C-23.37873308 36.69104461 -25.44595197 38.03623659 -28.00390625 39.921875 C-28.72191406 40.44201172 -29.43992187 40.96214844 -30.1796875 41.49804688 C-30.92089844 42.04396484 -31.66210938 42.58988281 -32.42578125 43.15234375 C-42.99760768 50.93568665 -51.12522921 55.1564726 -64.66015625 54.15625 C-75.23964041 52.33672879 -84.84776459 44.83709297 -91.09765625 36.37890625 C-94.11248609 30.67694546 -94.49243748 25.00274809 -94.42578125 18.71484375 C-94.43351562 17.9775 -94.44125 17.24015625 -94.44921875 16.48046875 C-94.43433095 12.3267726 -94.03477458 9.07258432 -92.17578125 5.33984375 C-90.84123138 6.00407177 -89.50820384 6.6713587 -88.17578125 7.33984375 C-87.42039062 7.69820312 -86.665 8.0565625 -85.88671875 8.42578125 C-82.08926054 10.52136856 -79.61711079 11.92059017 -78.2890625 16.19140625 C-78.00506693 18.29141021 -77.7537446 20.39609003 -77.53515625 22.50390625 C-76.92110059 27.34960637 -74.84012198 29.8960783 -71.23046875 33.02734375 C-66.71923813 36.42255564 -63.04491999 38.2478655 -57.33984375 37.77734375 C-49.87183307 36.26756542 -43.90482057 31.14105905 -37.9230957 26.69384766 C-33.37946658 23.33984375 -33.37946658 23.33984375 -31.17578125 23.33984375 C-31.2221875 22.47101563 -31.26859375 21.6021875 -31.31640625 20.70703125 C-31.61110984 11.29756665 -31.61110984 11.29756665 -29.61328125 6.90234375 C-21.25276325 -1.88691877 -11.71667111 -6.67826487 0 0 Z " fill="#45C2F4" transform="translate(129.17578125,152.66015625)"/>
<path d="M0 0 C4.96956795 2.87175853 8.41685018 7.06769254 10.625 12.375 C11.57867376 19.51646394 10.72753879 25.40086505 6.625 31.375 C5.965 32.035 5.305 32.695 4.625 33.375 C5.59111342 39.46151453 7.4749367 44.97389536 9.72265625 50.69921875 C12.88822713 60.08630123 13.13109309 71.04426513 8.94921875 80.09765625 C4.03703618 88.54545104 -4.03045708 96.13135685 -13.5546875 98.90234375 C-24.97889835 100.81692756 -34.27003447 100.34847587 -43.875 93.625 C-44.37 93.2125 -44.865 92.8 -45.375 92.375 C-44.2356565 88.9569695 -43.40089085 88.37151822 -40.5625 86.3125 C-39.87542969 85.80589844 -39.18835938 85.29929687 -38.48046875 84.77734375 C-36.50082747 83.45880717 -34.52551741 82.38501829 -32.375 81.375 C-31.385 82.035 -30.395 82.695 -29.375 83.375 C-22.97506689 84.47246145 -17.79558924 83.38763884 -12.359375 79.8984375 C-8.00596862 76.55625544 -5.8254568 73.97378924 -4.8671875 68.4453125 C-4.47812983 61.12087892 -5.77696059 54.60473376 -7.875 47.625 C-8.20238159 46.44490356 -8.20238159 46.44490356 -8.53637695 45.2409668 C-9.28501614 43.00437348 -9.9618282 41.26627398 -11.375 39.375 C-13.4270698 38.42924952 -15.252441 38.04017671 -17.48046875 37.69140625 C-21.39368156 37.03785937 -23.85169541 34.25603891 -26.375 31.375 C-29.68168461 26.74173985 -31.04634795 22.3019591 -30.76171875 16.609375 C-29.66687364 10.28360324 -26.25993664 5.44578053 -21.375 1.375 C-15.07233529 -2.97683992 -6.92053907 -3.1325925 0 0 Z " fill="#0D57A6" transform="translate(176.375,106.625)"/>
<path d="M0 0 C0 0.99 0 1.98 0 3 C-0.66 3 -1.32 3 -2 3 C-2.66 7.29 -3.32 11.58 -4 16 C-5.381875 16.391875 -6.76375 16.78375 -8.1875 17.1875 C-14.49921873 19.29801191 -18.00649298 23.12199322 -21 29 C-21.78806379 34.67263932 -21.84120872 40.10728038 -19.5 45.375 C-16.18124593 48.85969177 -12.75593949 51.99266701 -9 55 C-7.78183594 56.02480469 -7.78183594 56.02480469 -6.5390625 57.0703125 C-2.16883402 60.73371572 -2.16883402 60.73371572 3.16796875 61.9921875 C5.17086697 61.44206845 7.05982145 60.73775697 9 60 C16.35992651 59.19709893 21.89126091 61.90498018 27.875 65.9375 C31.04236006 69.01170241 32.80505326 71.62834769 33.43359375 76.05078125 C33.44367342 84.46730589 32.44264395 89.91186031 27 96.375 C21.6667536 100.7082627 15.53784002 101.36530018 8.81640625 100.82421875 C3.40533052 99.77997607 -0.39906774 97.1262672 -4 93 C-5.91444668 89.74544064 -7.11135028 87.35333418 -6.796875 83.53125 C-6.58208403 80.13364745 -6.6904247 78.18218458 -8 75 C-12.40565324 70.68850732 -17.8245983 67.61192935 -23.01782227 64.35205078 C-25.68497139 62.53277848 -27.82913073 60.37858847 -30 58 C-31.0209375 56.948125 -31.0209375 56.948125 -32.0625 55.875 C-37.16770561 48.29953362 -39.1851485 40.04133906 -38 31 C-35.69639717 19.6046629 -30.79409359 10.9114357 -21.1640625 4.21875 C-14.36034863 0.38705555 -7.68243093 -0.37173053 0 0 Z " fill="#0891CA" transform="translate(47,57)"/>
</svg>
